<svg width="128" height="128" viewBox="0 0 128 128" xmlns="http://www.w3.org/2000/svg" role="img" aria-labelledby="title desc">
  <title id="title">Логотип АвтоВердикт</title>
  <desc id="desc">Синий шеврон с силуэтом автомобиля и галочкой, символизирующей экспертную оценку.</desc>
  <defs>
    <linearGradient id="av-gradient" x1="20%" y1="10%" x2="80%" y2="90%">
      <stop offset="0" stop-color="#3b82f6" />
      <stop offset="1" stop-color="#1d4ed8" />
    </linearGradient>
    <linearGradient id="av-highlight" x1="0" y1="0" x2="0" y2="1">
      <stop offset="0" stop-color="#ffffff" stop-opacity="0.45" />
      <stop offset="1" stop-color="#ffffff" stop-opacity="0" />
    </linearGradient>
  </defs>
  <g fill="none" fill-rule="evenodd">
    <path d="M64 10c7.4 0 14.5 2.5 20.3 7l24.6 19.3A24 24 0 0 1 116 51.8V84a24 24 0 0 1-10.9 20.1l-24.6 16.8a24 24 0 0 1-26.9 0l-24.6-16.8A24 24 0 0 1 18 84V51.8a24 24 0 0 1 7.1-17.5L49.7 17c5.8-4.5 12.9-7 20.3-7Z" fill="url(#av-gradient)" />
    <path d="M62.9 18c-5.3.2-10.4 2-14.7 5.3L27.6 38.2C23 41.7 20.5 47.1 20.5 52.9v31c0 6.2 3 12 8 15.5l21.8 14.9c5 3.4 11.4 3.6 16.5.4l21.8-14.9c5-3.4 8-9.2 8-15.5v-31c0-5.8-2.5-11.2-7.1-14.7L79.8 23.2A28.3 28.3 0 0 0 62.9 18Z" fill="url(#av-highlight)" />
    <g transform="translate(26 38)">
      <path d="M14.1 39.8c-.8-1.8-1.2-3.8-1.2-5.8 0-8.8 6.8-16 15.2-16h30c5.9 0 11 3.7 13.6 9.4l4.5 10.1h2.8c4.4 0 8 3.6 8 8.1v6.4c0 4.5-3.6 8.1-8 8.1h-5.4c-1.9 5.9-7.3 9.9-13.4 9.9-6.1 0-11.4-4-13.4-9.9H46c-1.9 5.9-7.3 9.9-13.4 9.9-6.1 0-11.4-4-13.4-9.9H14c-4.4 0-8-3.6-8-8.1v-6.4c0-4.5 3.6-8.1 8-8.1h.1Zm46.8-9.8c-1.6-3.3-4.4-5.3-7.7-5.3H30.9c-4.9 0-8.9 4.2-8.9 9.5 0 1.5.3 3 .9 4.4h44l-6-13Zm-35 26.3c-4 0-7.2 3.3-7.2 7.4s3.2 7.4 7.2 7.4c4 0 7.2-3.3 7.2-7.4s-3.2-7.4-7.2-7.4Zm36.4 0c-4 0-7.2 3.3-7.2 7.4s3.2 7.4 7.2 7.4c4 0 7.2-3.3 7.2-7.4s-3.2-7.4-7.2-7.4Z" fill="#f8fafc" fill-opacity="0.95" />
      <path d="m60 4.2 6.8 6.9-20.3 20.6a4 4 0 0 1-5.7 0l-9.8-10 6.8-6.9 6.2 6.3L60 4.2Z" fill="#bfdbfe" />
    </g>
  </g>
</svg>
